
  <svg width="300" height="1200">


 
            <rect x="-60" y="90" rx="20" ry="20" width="150" height="80" fill="#665544"/>

      <circle cx="-4" cy="200" r="120" fill="#5FBFF9"/>
      <circle cx="92" cy="124" r="20" fill="#5FBFF9"/>
 
      <line x1="20" y1="90" x2="100" y2="112" fill="#5FBFF9" style="stroke-width:13;fill:#5FBFF9" />

      <line x1="62" y1="125" x2="80" y2="600" fill="#5FBFF9" style="stroke-width:100;fill:#5FBFF9" />
    
      <line x1="80" y1="590" x2="70" y2="1000" fill="#5FBFF9" style="stroke-width:100;fill:#5FBFF9" />
      <line x1="70" y1="990" x2="80" y2="1200" fill="#5FBFF9" style="stroke-width:100;fill:#5FBFF9" />


    
    

   <line x1="0" y1="200" x2="30" y2="200" style="stroke-width:100;fill:#665544" />
    <line x1="20" y1="200" x2="-30" y2="500" style="stroke-width:60;fill:#665544" />
    <rect x="-100" y="150" rx="20" ry="20" width="150" height="80" style="fill:#665544"/>
 

        <circle cx="30" cy="1200" r="120" style="fill:#fff:opacity:.4;"/>
        <circle cx="40" cy="1200" r="70" style="fill:#fff:opacity:.4;"/>
        <circle cx="120" cy="1200" r="50" style="fill:#fff:opacity:.4;"/>
       <circle cx="130" cy="1150" r="50" style="fill:#fff:opacity:.4;"/>
       
       <circle cx="60" cy="1200" r="130" style="fill:#fff:opacity:.4;"/>
        <circle cx="20" cy="1180" r="70" style="fill:#fff:opacity:.4;"/>
        <circle cx="140" cy="1160" r="70" style="fill:#fff:opacity:.4;"/>
       <circle cx="120" cy="1170" r="50" style="fill:#fff:opacity:.4;"/>
     

    
  </svg>

 